<?xml version="1.0" encoding="UTF-8"?>
<svg id="logo" xmlns="http://www.w3.org/2000/svg" viewBox="0 0 748.06 161.22">
  <defs>
    <style>
      .cls-1 {
        fill-rule: evenodd;
      }

      .cls-1, .cls-2 {
        fill: #fff;
      }
    </style>
  </defs>
  <g id="white">
    <g>
      <path class="cls-1" d="M70.56,98.27c-1.47-.4-2.9-.88-4.3-1.43-15.45-6.09-26.34-21.13-26.34-38.67,0-22.95,18.62-41.55,41.58-41.55h.03V0h-.03C49.35,0,23.29,26.04,23.29,58.17c0,24.6,15.28,45.63,36.87,54.14.06.03.13.05.2.08l10.2-14.11Z"/>
      <path class="cls-1" d="M42.24,136.61l-9.84,13.41c9.49,6.71,21.07,10.65,33.58,10.65,32.15,0,58.22-26.04,58.22-58.17,0-11.26-3.2-21.77-8.75-30.67l-16.42,5.46c5.35,6.99,8.53,15.73,8.53,25.21,0,22.95-18.61,41.55-41.58,41.55-8.83,0-17.01-2.75-23.74-7.43Z"/>
      <path class="cls-1" d="M18.57,62.22l-15.78-5.28c-1.81,5.62-2.79,11.62-2.79,17.85,0,32.13,26.07,58.17,58.22,58.17,17.9,0,33.92-8.08,44.6-20.78l-10.23-14c-7.48,10.96-20.09,18.16-34.37,18.16-22.97,0-41.58-18.6-41.58-41.55,0-4.38.67-8.6,1.93-12.57Z"/>
      <path class="cls-1" d="M121.35,136.2l9.99,13.3c14.49-10.58,23.9-27.69,23.9-47,0-32.13-26.06-58.17-58.21-58.17-5.38,0-10.58.73-15.53,2.09v17.52c4.8-1.93,10.04-2.99,15.53-2.99,22.96,0,41.58,18.6,41.58,41.55,0,13.87-6.8,26.16-17.26,33.7Z"/>
      <path class="cls-1" d="M63.28,77.26c-.05-.82-.07-1.64-.07-2.47,0-22.95,18.62-41.55,41.58-41.55,18.61,0,34.37,12.22,39.67,29.07l15.78-5.28c-7.51-23.44-29.5-40.41-55.45-40.41-31.1,0-56.51,24.38-58.13,55.05l16.62,5.58Z"/>
    </g>
    <g>
      <path class="cls-2" d="M745.7,108.83c-1.52-2.88-3.63-4.99-6.35-6.35-2.65-1.41-5.72-2.12-9.19-2.12-4.17,0-7.89,1-11.14,3.01-1.83,1.15-3.37,2.53-4.63,4.14-1.03-1.65-2.33-3-3.92-4.06-2.98-2.06-6.48-3.09-10.49-3.09-3.58,0-6.78.79-9.6,2.36-1.59.87-2.97,2-4.15,3.36v-5.06h-12.12v43.77h12.69v-21.97c0-2.6.41-4.75,1.22-6.43.81-1.68,1.95-2.93,3.42-3.74,1.46-.87,3.11-1.3,4.96-1.3,2.66,0,4.69.84,6.1,2.52,1.46,1.68,2.2,4.28,2.2,7.81v23.11h12.69v-21.97c0-2.6.41-4.75,1.22-6.43.81-1.68,1.95-2.93,3.42-3.74,1.46-.87,3.11-1.3,4.96-1.3,2.66,0,4.72.84,6.18,2.52,1.47,1.68,2.2,4.28,2.2,7.81v23.11h12.69v-25.06c0-4.45-.79-8.08-2.36-10.9Z"/>
      <path class="cls-2" d="M652.91,101.02v21.64c0,2.66-.43,4.88-1.3,6.67-.87,1.73-2.06,3.04-3.58,3.9-1.52.81-3.25,1.22-5.21,1.22-2.82,0-5.01-.84-6.59-2.52-1.51-1.73-2.27-4.42-2.27-8.05v-22.86h-12.7v24.73c0,4.5.79,8.22,2.36,11.15,1.58,2.88,3.77,5.02,6.59,6.43,2.88,1.41,6.13,2.11,9.77,2.11,3.36,0,6.45-.76,9.27-2.28,1.68-.92,3.11-2.09,4.31-3.51v5.14h12.04v-43.77h-12.69Z"/>
      <path class="cls-2" d="M606.4,102.81c-1.84,1.01-3.35,2.33-4.55,3.96v-5.75h-12.12v43.77h12.69v-20.67c0-4.18,1.05-7.24,3.17-9.19,2.17-2.01,4.99-3.01,8.46-3.01.49,0,.95.03,1.38.08.44,0,.93.03,1.47.08v-11.72c-4.12,0-7.62.81-10.5,2.44Z"/>
      <path class="cls-2" d="M560.5,145.44c-4.67,0-8.82-.98-12.45-2.93-3.58-1.95-6.43-4.61-8.54-7.97-2.06-3.42-3.09-7.29-3.09-11.63s1.03-8.27,3.09-11.63c2.11-3.42,4.96-6.07,8.54-7.97,3.63-1.95,7.78-2.93,12.45-2.93s8.73.98,12.36,2.93c3.64,1.9,6.48,4.53,8.55,7.89,2.06,3.36,3.09,7.27,3.09,11.72s-1.03,8.22-3.09,11.63c-2.07,3.36-4.91,6.02-8.55,7.97-3.63,1.95-7.75,2.93-12.36,2.93ZM560.5,135.02c2.11,0,4.01-.49,5.69-1.46,1.68-.98,3.01-2.36,3.99-4.15.97-1.84,1.46-4.01,1.46-6.51s-.49-4.72-1.46-6.51c-.98-1.79-2.31-3.17-3.99-4.15-1.68-.98-3.58-1.46-5.69-1.46s-4.02.49-5.7,1.46c-1.68.98-3.04,2.36-4.07,4.15-.97,1.79-1.46,3.96-1.46,6.51s.49,4.66,1.46,6.51c1.03,1.79,2.39,3.17,4.07,4.15,1.68.98,3.58,1.46,5.7,1.46Z"/>
      <polygon class="cls-2" points="535.93 98.41 535.93 87.84 492.89 87.84 492.89 144.78 506.07 144.78 506.07 124.04 532.43 124.04 532.43 113.46 506.07 113.46 506.07 98.41 535.93 98.41"/>
      <path class="cls-2" d="M448.55,144.78v-60.37h12.7v60.37h-12.7Z"/>
      <path class="cls-2" d="M434.79,105.08c-3.69-3.15-8.87-4.72-15.54-4.72-3.47,0-6.89.46-10.25,1.38-3.36.92-6.24,2.22-8.62,3.9l4.55,8.87c1.57-1.25,3.47-2.22,5.7-2.93,2.27-.76,4.58-1.14,6.91-1.14,3.42,0,5.94.76,7.57,2.28,1.68,1.52,2.52,3.63,2.52,6.34h-10.09c-4.45,0-8.05.57-10.82,1.71-2.76,1.08-4.8,2.6-6.1,4.56-1.25,1.95-1.87,4.23-1.87,6.83s.65,4.75,1.95,6.75c1.3,2.01,3.17,3.61,5.61,4.8,2.45,1.14,5.37,1.71,8.79,1.71,3.85,0,7-.73,9.44-2.2,1.65-.99,2.95-2.3,3.9-3.91v5.46h11.88v-24.98c0-6.67-1.84-11.58-5.53-14.73ZM423.97,135.43c-1.68.98-3.58,1.46-5.7,1.46s-3.98-.46-5.28-1.38c-1.25-.98-1.88-2.28-1.88-3.9,0-1.46.55-2.68,1.63-3.66,1.14-.98,3.2-1.46,6.18-1.46h8.71v4.47c-.76,1.95-1.98,3.44-3.66,4.47Z"/>
      <path class="cls-2" d="M394.31,133.72c-1.41,1.08-3.12,1.63-5.13,1.63-1.68,0-3.01-.49-3.98-1.47-.98-1.03-1.47-2.47-1.47-4.31v-17.82h10.9v-9.76h-10.9v-10.66h-12.69v10.66h-6.75v9.76h6.75v17.98c0,5.21,1.44,9.14,4.31,11.8,2.88,2.6,6.89,3.9,12.04,3.9,1.96,0,3.83-.22,5.62-.65,1.84-.49,3.41-1.19,4.72-2.11l-3.42-8.95Z"/>
      <path class="cls-2" d="M348.28,144.78v-43.77h12.69v43.77h-12.69ZM354.63,94.91c-2.34,0-4.24-.68-5.7-2.03s-2.2-3.04-2.2-5.04.74-3.69,2.2-5.04,3.36-2.03,5.7-2.03,4.23.65,5.69,1.95c1.46,1.25,2.2,2.87,2.2,4.88,0,2.11-.74,3.88-2.2,5.29-1.41,1.36-3.31,2.03-5.69,2.03Z"/>
      <path class="cls-2" d="M327.68,101.02v5.57c-1.31-1.67-2.88-2.99-4.72-3.95-2.82-1.52-6.07-2.28-9.76-2.28-4.07,0-7.76.87-11.07,2.6-3.25,1.73-5.88,4.2-7.89,7.4-1.95,3.15-2.93,6.86-2.93,11.15s.98,7.95,2.93,11.15c2.01,3.15,4.64,5.61,7.89,7.4,3.31,1.74,7,2.6,11.07,2.6,3.69,0,6.94-.76,9.76-2.28,1.55-.83,2.9-1.91,4.07-3.22v1.91c0,3.96-1.03,6.94-3.09,8.95-2.01,2.01-5.26,3.01-9.76,3.01-2.77,0-5.59-.46-8.47-1.38-2.82-.87-5.15-2.06-6.99-3.58l-5.05,9.11c2.55,2.01,5.73,3.5,9.52,4.47,3.85,1.03,7.84,1.55,11.96,1.55,7.92,0,13.99-1.93,18.23-5.78,4.23-3.85,6.34-9.84,6.34-17.98v-36.45h-12.04ZM325.73,127.13c-.98,1.63-2.33,2.9-4.07,3.82-1.74.87-3.72,1.3-5.94,1.3s-4.2-.43-5.94-1.3c-1.73-.92-3.12-2.2-4.15-3.82-.97-1.63-1.46-3.5-1.46-5.61s.49-4.04,1.46-5.61c1.03-1.63,2.42-2.88,4.15-3.74,1.74-.92,3.72-1.38,5.94-1.38s4.2.46,5.94,1.38c1.74.87,3.09,2.11,4.07,3.74.97,1.57,1.46,3.44,1.46,5.61s-.49,3.99-1.46,5.61Z"/>
      <path class="cls-2" d="M273.35,144.78v-43.77h12.69v43.77h-12.69ZM279.7,94.91c-2.33,0-4.23-.68-5.7-2.03-1.46-1.36-2.19-3.04-2.19-5.04s.73-3.69,2.19-5.04c1.47-1.36,3.37-2.03,5.7-2.03s4.23.65,5.69,1.95c1.47,1.25,2.2,2.87,2.2,4.88,0,2.11-.73,3.88-2.2,5.29-1.41,1.36-3.31,2.03-5.69,2.03Z"/>
      <path class="cls-2" d="M210.29,144.78v-56.95h25.87c6.18,0,11.63,1.19,16.35,3.58,4.72,2.33,8.41,5.61,11.07,9.84,2.65,4.23,3.98,9.25,3.98,15.05s-1.33,10.77-3.98,15.05c-2.66,4.23-6.35,7.54-11.07,9.92-4.72,2.33-10.17,3.5-16.35,3.5h-25.87ZM223.47,133.96h12.04c3.79,0,7.08-.7,9.84-2.11,2.82-1.46,4.99-3.53,6.51-6.18,1.57-2.66,2.36-5.78,2.36-9.36s-.79-6.75-2.36-9.36c-1.52-2.66-3.69-4.69-6.51-6.1-2.76-1.46-6.05-2.2-9.84-2.2h-12.04v35.31Z"/>
      <path class="cls-2" d="M439.33,63.78V3.42h12.7v60.37h-12.7Z"/>
      <path class="cls-2" d="M425.57,24.08c-3.69-3.15-8.87-4.72-15.54-4.72-3.47,0-6.89.46-10.25,1.38-3.36.92-6.24,2.22-8.62,3.9l4.55,8.87c1.58-1.25,3.47-2.22,5.7-2.93,2.28-.76,4.58-1.14,6.91-1.14,3.42,0,5.94.76,7.57,2.28,1.68,1.52,2.52,3.63,2.52,6.34h-10.09c-4.44,0-8.05.57-10.82,1.71-2.76,1.08-4.8,2.6-6.1,4.56-1.25,1.95-1.87,4.23-1.87,6.83s.65,4.75,1.95,6.75c1.3,2.01,3.17,3.61,5.62,4.8,2.44,1.14,5.36,1.71,8.78,1.71,3.85,0,7-.73,9.44-2.2,1.65-.99,2.94-2.3,3.9-3.91v5.46h11.88v-24.98c0-6.67-1.84-11.58-5.53-14.73ZM414.75,54.43c-1.68.98-3.58,1.46-5.7,1.46s-3.98-.46-5.28-1.38c-1.25-.98-1.87-2.28-1.87-3.9,0-1.46.54-2.68,1.62-3.66,1.14-.98,3.2-1.46,6.19-1.46h8.7v4.47c-.76,1.95-1.98,3.44-3.66,4.47Z"/>
      <path class="cls-2" d="M384.92,29.94c-1.9-3.36-4.5-5.97-7.81-7.81-3.25-1.84-6.94-2.77-11.06-2.77-3.69,0-6.92.81-9.68,2.44-1.3.76-2.46,1.72-3.5,2.86V3.42h-12.69v60.37h12.12v-5.07c1.1,1.32,2.37,2.42,3.82,3.28,2.77,1.63,6.08,2.44,9.93,2.44,4.12,0,7.81-.92,11.06-2.77,3.31-1.9,5.91-4.53,7.81-7.89,1.95-3.36,2.93-7.32,2.93-11.88s-.98-8.6-2.93-11.96ZM373.45,48.41c-.98,1.79-2.31,3.17-3.99,4.15-1.62.98-3.49,1.47-5.61,1.47s-4.01-.49-5.69-1.47c-1.69-.98-3.02-2.36-3.99-4.15-.98-1.84-1.47-4.01-1.47-6.51s.49-4.72,1.47-6.51c.97-1.79,2.3-3.17,3.99-4.15,1.68-.98,3.57-1.46,5.69-1.46s3.99.49,5.61,1.46c1.68.98,3.01,2.36,3.99,4.15,1.03,1.79,1.55,3.96,1.55,6.51s-.52,4.66-1.55,6.51Z"/>
      <path class="cls-2" d="M310.95,64.44c-4.67,0-8.82-.98-12.45-2.93-3.58-1.95-6.43-4.61-8.54-7.97-2.06-3.42-3.1-7.29-3.1-11.63s1.04-8.27,3.1-11.63c2.11-3.42,4.96-6.07,8.54-7.97,3.63-1.95,7.78-2.93,12.45-2.93s8.73.98,12.36,2.93c3.64,1.9,6.48,4.53,8.54,7.89,2.07,3.36,3.1,7.27,3.1,11.72s-1.03,8.22-3.1,11.63c-2.06,3.36-4.9,6.02-8.54,7.97-3.63,1.95-7.75,2.93-12.36,2.93ZM310.95,54.02c2.11,0,4.01-.49,5.69-1.46,1.68-.98,3.01-2.36,3.99-4.15.97-1.84,1.46-4.01,1.46-6.51s-.49-4.72-1.46-6.51c-.98-1.79-2.31-3.17-3.99-4.15-1.68-.98-3.58-1.46-5.69-1.46s-4.02.49-5.7,1.46c-1.68.98-3.04,2.36-4.07,4.15-.97,1.79-1.46,3.96-1.46,6.51s.49,4.66,1.46,6.51c1.03,1.79,2.39,3.17,4.07,4.15,1.68.98,3.58,1.46,5.7,1.46Z"/>
      <path class="cls-2" d="M268.9,63.78V3.42h12.69v60.37h-12.69Z"/>
      <path class="cls-2" d="M248.77,51.11c-.89.47-1.78.88-2.69,1.2-2.44.81-4.96,1.22-7.56,1.22s-5.21-.43-7.49-1.3c-2.22-.87-4.17-2.12-5.85-3.74-1.63-1.68-2.91-3.63-3.83-5.86-.87-2.22-1.3-4.66-1.3-7.32s.43-5.18,1.3-7.4c.92-2.22,2.2-4.15,3.83-5.78,1.68-1.63,3.66-2.88,5.93-3.74,2.28-.87,4.8-1.3,7.57-1.3s5.53.54,7.97,1.63c2.44,1.03,4.69,2.63,6.76,4.8l8.46-7.81c-2.77-3.2-6.19-5.64-10.25-7.32-4.02-1.68-8.55-2.52-13.59-2.52-4.56,0-8.73.73-12.53,2.2-3.8,1.41-7.1,3.44-9.92,6.1-2.83,2.66-5.02,5.78-6.59,9.36-1.52,3.58-2.28,7.51-2.28,11.8s.76,8.22,2.28,11.8c1.57,3.58,3.74,6.7,6.5,9.36,2.82,2.66,6.11,4.72,9.85,6.18,3.79,1.41,7.94,2.11,12.45,2.11,4.06,0,8.13-.62,12.2-1.87,4.12-1.25,7.73-3.04,10.82-5.37v-23.1h-12.04v16.7Z"/>
    </g>
  </g>
</svg>